{
  "accessors": [
    {
      "bufferView": 2,
      "componentType": 5126,
      "count": 92,
      "max": [
        1.0,
        1.0,
        1.0
      ],
      "min": [
        -1.7444369792938232,
        -1.0,
        -1.0
      ],
      "type": "VEC3"
    },
    {
      "bufferView": 2,
      "byteOffset": 1104,
      "componentType": 5126,
      "count": 92,
      "max": [
        1.0,
        1.0,
        1.0
      ],
      "min": [
        -1.0,
        -1.0,
        -1.0
      ],
      "type": "VEC3"
    },
    {
      "bufferView": 1,
      "componentType": 5126,
      "count": 92,
      "max": [
        0.9920026659965515,
        0.9984767436981201
      ],
      "min": [
        -0.005846364423632622,
        0.05204857140779495
      ],
      "type": "VEC2"
    },
    {
      "bufferView": 0,
      "componentType": 5125,
      "count": 180,
      "type": "SCALAR"
    },
    {
      "bufferView": 2,
      "byteOffset": 2208,
      "componentType": 5126,
      "count": 114,
      "max": [
        1.0000035762786865,
        0.5787028670310974,
        0.8801658749580383
      ],
      "min": [
        -1.7444369792938232,
        -0.8257749080657959,
        -0.8336888551712036
      ],
      "type": "VEC3"
    },
    {
      "bufferView": 2,
      "byteOffset": 3576,
      "componentType": 5126,
      "count": 114,
      "max": [
        1.0,
        0.9999985098838806,
        1.0
      ],
      "min": [
        -1.0,
        -1.0,
        -1.0
      ],
      "type": "VEC3"
    },
    {
      "bufferView": 1,
      "byteOffset": 736,
      "componentType": 5126,
      "count": 114,
      "max": [
        0.9920026659965515,
        0.9574125409126282
      ],
      "min": [
        0.04777010530233383,
        0.05204857140779495
      ],
      "type": "VEC2"
    },
    {
      "bufferView": 0,
      "byteOffset": 720,
      "componentType": 5125,
      "count": 180,
      "type": "SCALAR"
    }
  ],
  "asset": {
    "extras": {
      "author": "Patolino (https://sketchfab.com/mrpatolino)",
      "license": "CC-BY-4.0 (http://creativecommons.org/licenses/by/4.0/)",
      "source": "https://sketchfab.com/3d-models/ctr-tv-psxps1-style-8a3f5203fe7145a28e3b01fbb15b8691",
      "title": "CTR TV PSX/PS1 Style"
    },
    "generator": "Sketchfab-15.83.0",
    "version": "2.0"
  },
  "bufferViews": [
    {
      "buffer": 0,
      "byteLength": 1440,
      "name": "floatBufferViews",
      "target": 34963
    },
    {
      "buffer": 0,
      "byteLength": 1648,
      "byteOffset": 1440,
      "byteStride": 8,
      "name": "floatBufferViews",
      "target": 34962
    },
    {
      "buffer": 0,
      "byteLength": 4944,
      "byteOffset": 3088,
      "byteStride": 12,
      "name": "floatBufferViews",
      "target": 34962
    }
  ],
  "buffers": [
    {
      "byteLength": 8032,
      "uri": "scene.bin"
    }
  ],
  "images": [
    {
      "uri": "textures/Material_baseColor.png"
    }
  ],
  "materials": [
    {
      "doubleSided": true,
      "name": "Material",
      "pbrMetallicRoughness": {
        "baseColorTexture": {
          "index": 0
        },
        "metallicFactor": 0.0,
        "roughnessFactor": 0.8211145618000169
      }
    },
    {
      "doubleSided": true,
      "name": "Material.002",
      "pbrMetallicRoughness": {
        "baseColorTexture": {
          "index": 0
        },
        "metallicFactor": 0.0,
        "roughnessFactor": 0.8211145618000169
      }
    }
  ],
  "meshes": [
    {
      "name": "PSX style tv_Material_0",
      "primitives": [
        {
          "attributes": {
            "NORMAL": 1,
            "POSITION": 0,
            "TEXCOORD_0": 2
          },
          "indices": 3,
          "material": 0,
          "mode": 4
        }
      ]
    },
    {
      "name": "Screen_Material.002_0",
      "primitives": [
        {
          "attributes": {
            "NORMAL": 5,
            "POSITION": 4,
            "TEXCOORD_0": 6
          },
          "indices": 7,
          "material": 1,
          "mode": 4
        }
      ]
    }
  ],
  "nodes": [
    {
      "children": [
        1
      ],
      "matrix": [
        0.3377785086631775,
        0.0,
        0.0,
        0.0,
        0.0,
        7.500189550828151e-17,
        -0.3377785086631775,
        0.0,
        0.0,
        0.3377785086631775,
        7.500189550828151e-17,
        0.0,
        0.0,
        0.0,
        0.0,
        1.0
      ],
      "name": "Sketchfab_model"
    },
    {
      "children": [
        2
      ],
      "matrix": [
        0.009999999776482582,
        0.0,
        0.0,
        0.0,
        0.0,
        0.0,
        0.009999999776482582,
        0.0,
        0.0,
        -0.009999999776482582,
        0.0,
        0.0,
        0.0,
        0.0,
        0.0,
        1.0
      ],
      "name": "PSX style tv.fbx"
    },
    {
      "children": [
        3,
        5
      ],
      "name": "RootNode"
    },
    {
      "children": [
        4
      ],
      "matrix": [
        70.37771606445313,
        0.0,
        0.0,
        0.0,
        0.0,
        -92.11313629150288,
        1.390869662174361e-05,
        0.0,
        0.0,
        -1.6990598618730697e-05,
        -112.52365112304562,
        0.0,
        0.0,
        0.0,
        0.0,
        1.0
      ],
      "name": "PSX style tv"
    },
    {
      "mesh": 0,
      "name": "PSX style tv_Material_0"
    },
    {
      "children": [
        6
      ],
      "matrix": [
        1.0000004768371582,
        0.0,
        0.0,
        0.0,
        0.0,
        -92.11313629150288,
        1.390869662174361e-05,
        0.0,
        0.0,
        -1.6990598618730697e-05,
        -112.52365112304562,
        0.0,
        71.10155487060547,
        0.0,
        0.0,
        1.0
      ],
      "name": "Screen"
    },
    {
      "mesh": 1,
      "name": "Screen_Material.002_0"
    }
  ],
  "samplers": [
    {
      "magFilter": 9728,
      "minFilter": 9986,
      "wrapS": 10497,
      "wrapT": 10497
    }
  ],
  "scene": 0,
  "scenes": [
    {
      "name": "Sketchfab_Scene",
      "nodes": [
        0
      ]
    }
  ],
  "textures": [
    {
      "sampler": 0,
      "source": 0
    }
  ]
}
